<?xml version="1.0"?>
<svg xmlns="http://www.w3.org/2000/svg" height="512px" viewBox="-11 0 512 512" width="512px"><g><path d="m490 267c0 135.308594-109.691406 245-245 245s-245-109.691406-245-245 109.691406-245 245-245 245 109.691406 245 245zm0 0" fill="#ffd782" data-original="#FFD782"/><path d="m102.777344 466.5c40.101562 28.640625 89.191406 45.5 142.222656 45.5s102.121094-16.859375 142.222656-45.5zm0 0" fill="#bf7e52" data-original="#BF7E52"/><path d="m412.953125 288.152344-33.890625-62.152344c-.671875-1.234375-1.964844-2-3.371094-2-1.402344 0-2.699218.765625-3.367187 2l-33.890625 62.152344c-4.09375 6.753906-6.257813 14.507812-6.257813 22.4375 0 21.71875 16.09375 39.761718 37.019531 42.898437v-24.515625c0-3.582031 2.914063-6.5 6.5-6.5 3.582032 0 6.5 2.917969 6.5 6.5v24.515625c20.921876-3.140625 37.019532-21.179687 37.019532-42.898437-.003906-7.929688-2.167969-15.679688-6.261719-22.4375zm0 0" fill="#ffaf10" data-original="#FFAF10"/><path d="m368.191406 339.585938c-1.613281-1.789063-3.089844-3.707032-4.394531-5.746094-7.230469-4.132813-12.105469-11.914063-12.105469-20.839844 0-7.238281 3.210938-13.726562 8.28125-18.125.902344-2.320312 1.984375-4.574219 3.285156-6.722656l24.847657-45.566406-9.046875-16.585938c-.667969-1.234375-1.960938-2-3.367188-2s-2.699218.765625-3.367187 2l-33.890625 62.152344c-4.09375 6.753906-6.257813 14.507812-6.257813 22.4375 0 21.371094 15.585938 39.171875 36.015625 42.726562zm0 0" fill="#ef9614" data-original="#EF9614"/><path d="m375.691406 289c-13.253906 0-24 10.746094-24 24 0 11 7.40625 20.265625 17.5 23.101562v-7.128906c0-3.582031 2.917969-6.5 6.5-6.5 3.585938 0 6.5 2.917969 6.5 6.5v7.128906c10.097656-2.835937 17.5-12.101562 17.5-23.101562 0-13.253906-10.742187-24-24-24zm0 0" fill="#ffd00d" data-original="#FFD00D"/><path d="m383.191406 363.5v-34.527344c0-4.140625-3.355468-7.5-7.5-7.5-4.140625 0-7.5 3.359375-7.5 7.5v34.527344zm0 0" fill="#2e4c89" data-original="#2E4C89"/><path d="m428.691406 362.5h-92.429687c-.679688 2.863281-3.25 5-6.320313 5h-12.25v86h12.25c3.585938 0 6.5 2.914062 6.5 6.5s-2.914062 6.5-6.5 6.5v1h55.875c17.859375-12.566406 33.964844-27.453125 47.875-44.230469v-55.769531c0-2.75-2.25-5-5-5zm0 0" fill="#ea2a3d" data-original="#EA2A3D"/><path d="m336.261719 362.5c-.679688 2.863281-3.25 5-6.316407 5h-12.25v35.101562h17.671876v-7.402343c0-4.667969 2.835937-7.027344 6.632812-6.007813v-21.691406c0-2.75 2.25-5 5-5zm0 0" fill="#b7092b" data-original="#B7092B"/><path d="m329.941406 453.5c3.585938 0 6.5 2.914062 6.5 6.5s-2.914062 6.5-6.5 6.5v1h17.058594c-2.75 0-5-2.25-5-5v-31.492188c-3.796875 1.019532-6.632812-1.339843-6.632812-6.007812v-7.398438h-17.671876v35.898438zm0 0" fill="#b7092b" data-original="#B7092B"/><path d="m412.519531 402.601562h21.171875v15h-21.171875zm0 0" fill="#0f9390" data-original="#0F9390"/><path d="m317.691406 402.601562h18.671875v15h-18.671875zm0 0" fill="#0f9390" data-original="#0F9390"/><path d="m339.800781 149.398438c-2.039062 0-3.785156-1.453126-4.152343-3.457032-4.113282-22.339844-6.25-24.476562-28.59375-28.589844-2-.371093-3.457032-2.117187-3.457032-4.152343 0-2.039063 1.457032-3.785157 3.457032-4.152344 22.34375-4.113281 24.480468-6.25 28.59375-28.589844.367187-2.003906 2.113281-3.457031 4.152343-3.457031 2.035157 0 3.78125 1.453125 4.148438 3.457031 4.113281 22.339844 6.253906 24.480469 28.59375 28.59375 2.003906.367188 3.457031 2.113281 3.457031 4.148438 0 2.039062-1.453125 3.785156-3.457031 4.152343-22.339844 4.113282-24.476563 6.25-28.589844 28.589844-.371094 2.003906-2.117187 3.457032-4.152344 3.457032zm0 0" fill="#fff" data-original="#FFF"/><path d="m91.800781 168.398438c-1.363281 0-2.53125-.972657-2.777343-2.308594-2.75-14.9375-4.175782-16.367188-19.113282-19.117188-1.339844-.246094-2.308594-1.414062-2.308594-2.773437s.96875-2.527344 2.308594-2.773438c14.9375-2.75 16.367188-4.179687 19.113282-19.117187.246093-1.335938 1.414062-2.308594 2.777343-2.308594 1.359375 0 2.527344.972656 2.773438 2.308594 2.75 14.9375 4.179687 16.367187 19.113281 19.117187 1.339844.246094 2.3125 1.414063 2.3125 2.773438s-.972656 2.527343-2.3125 2.773437c-14.933594 2.75-16.363281 4.179688-19.113281 19.117188-.246094 1.335937-1.414063 2.308594-2.773438 2.308594zm0 0" fill="#ffaf10" data-original="#FFAF10"/><path d="m422.800781 228.398438c-1.363281 0-2.53125-.972657-2.777343-2.308594-2.75-14.9375-4.175782-16.367188-19.113282-19.117188-1.339844-.246094-2.308594-1.414062-2.308594-2.773437s.96875-2.527344 2.308594-2.773438c14.9375-2.75 16.367188-4.179687 19.113282-19.117187.246093-1.335938 1.414062-2.308594 2.777343-2.308594 1.359375 0 2.527344.972656 2.773438 2.308594 2.75 14.9375 4.179687 16.367187 19.113281 19.117187 1.339844.246094 2.3125 1.414063 2.3125 2.773438s-.972656 2.527343-2.3125 2.773437c-14.933594 2.75-16.363281 4.179688-19.113281 19.117188-.246094 1.335937-1.414063 2.308594-2.773438 2.308594zm0 0" fill="#ffaf10" data-original="#FFAF10"/><path d="m237.5 395h15v32h-15zm0 0" fill="#2e4c89" data-original="#2E4C89"/><path d="m195 367.5v25.378906c4.765625 2.003906 10.003906 3.121094 15.5 3.121094h69c18.09375 0 33.371094-12.015625 38.3125-28.5zm0 0" fill="#293d7c" data-original="#293D7C"/><path d="m196.6875 367.5h-1.6875v25.378906c4.765625 2.003906 10.003906 3.121094 15.5 3.121094h24.5c-18.09375 0-33.371094-12.015625-38.3125-28.5zm0 0" fill="#1a2b63" data-original="#1A2B63"/><path d="m248.367188 2c-.671876-1.234375-1.960938-2-3.371094-2-1.402344 0-2.695313.765625-3.363282 2l-33.894531 62.152344c-4.09375 6.753906-6.257812 14.507812-6.257812 22.4375 0 21.71875 16.097656 39.761718 37.019531 42.898437v-25.488281c0-3.585938 2.914062-6.5 6.5-6.5s6.5 2.914062 6.5 6.5v25.488281c20.925781-3.140625 37.019531-21.179687 37.019531-42.898437 0-7.929688-2.164062-15.679688-6.261719-22.4375zm0 0" fill="#ffaf10" data-original="#FFAF10"/><path d="m237.5 115.917969c-1.816406-1.972657-3.460938-4.105469-4.890625-6.386719-6.953125-4.203125-11.609375-11.816406-11.609375-20.53125 0-7.015625 3.011719-13.328125 7.8125-17.71875.929688-2.464844 2.070312-4.855469 3.445312-7.128906l25-45.847656-8.890624-16.304688c-.671876-1.234375-1.960938-2-3.371094-2-1.402344 0-2.695313.765625-3.363282 2l-33.894531 62.152344c-4.09375 6.753906-6.257812 14.507812-6.257812 22.4375 0 21.371094 15.585937 39.171875 36.019531 42.726562zm0 0" fill="#ef9614" data-original="#EF9614"/><path d="m245 65c-13.253906 0-24 10.746094-24 24 0 11 7.40625 20.265625 17.5 23.101562v-8.101562c0-3.585938 2.914062-6.5 6.5-6.5s6.5 2.914062 6.5 6.5v8.101562c10.09375-2.835937 17.5-12.101562 17.5-23.101562 0-13.253906-10.746094-24-24-24zm0 0" fill="#ffd00d" data-original="#FFD00D"/><path d="m252.5 139v-35c0-4.140625-3.359375-7.5-7.5-7.5s-7.5 3.359375-7.5 7.5v35zm0 0" fill="#2e4c89" data-original="#2E4C89"/><path d="m298 138h-106c-2.75 0-5 2.25-5 5v153.5h4c2.207031 0 4 1.792969 4 4v54h107.75c.148438-.46875.25-.957031.25-1.472656v-210.027344c0-2.75-2.25-5-5-5zm0 0" fill="#ea2a3d" data-original="#EA2A3D"/><path d="m192 138c-2.75 0-5 2.25-5 5v153.5h4c2.207031 0 4 1.792969 4 4v54h16v-211.5c0-2.75 2.25-5 5-5zm0 0" fill="#b7092b" data-original="#B7092B"/><path d="m230.390625 354.5 72.609375-41.921875v-17.320313l-102.609375 59.242188zm0 0" fill="#fe3745" data-original="#FE3745"/><path d="m195 317.417969v17.320312l108-62.355469v-17.320312zm0 0" fill="#fe3745" data-original="#FE3745"/><path d="m297.894531 354.5 5.105469-2.945312v-17.320313l-35.101562 20.265625zm0 0" fill="#fe3745" data-original="#FE3745"/><path d="m187 281.839844v14.660156h4c.175781 0 .347656.03125.515625.050781l111.484375-64.363281v-17.320312zm0 0" fill="#fe3745" data-original="#FE3745"/><path d="m329.941406 353.5h-134.941406v15h134.941406c4.144532 0 7.5-3.359375 7.5-7.5s-3.355468-7.5-7.5-7.5zm0 0" fill="#2e4c89" data-original="#2E4C89"/><path d="m303.5 441c0-8.25-6.75-15-15-15h-87c-2.328125 0-4.527344.554688-6.5 1.511719v26.488281h108.5zm0 0" fill="#293d7c" data-original="#293D7C"/><path d="m211 441c0-8.25 6.75-15 15-15h-24.5c-2.328125 0-4.527344.554688-6.5 1.511719v26.488281h16zm0 0" fill="#1a2b63" data-original="#1A2B63"/><path d="m329.941406 452.5h-134.941406v15h134.941406c4.144532 0 7.5-3.359375 7.5-7.5s-3.355468-7.5-7.5-7.5zm0 0" fill="#2e4c89" data-original="#2E4C89"/><path d="m187 178.570312 70.273438-40.570312h-30.003907l-40.269531 23.25zm0 0" fill="#fe3745" data-original="#FE3745"/><path d="m187 218.765625 116-66.972656v-8.792969c0-2.75-2.25-5-5-5h-1.105469l-109.894531 63.445312zm0 0" fill="#fe3745" data-original="#FE3745"/><path d="m187 258.964844 116-66.976563v-17.316406l-116 66.972656zm0 0" fill="#fe3745" data-original="#FE3745"/><path d="m366.222656 417.566406v-14.929687c0-.109375.023438-.210938.03125-.316407-.1875-.09375-.375-.179687-.554687-.277343l-21.589844-11.988281c-4.808594-2.667969-8.742187-.355469-8.742187 5.144531v29.800781c0 5.5 3.933593 7.816406 8.742187 5.144531l21.589844-11.984375c.179687-.101562.371093-.1875.554687-.277344-.007812-.109374-.03125-.210937-.03125-.316406zm0 0" fill="#37c47a" data-original="#37C47A"/><path d="m404.777344 390.054688-21.589844 11.984374c-.179688.101563-.371094.1875-.554688.28125.007813.105469.03125.207032.03125.316407v14.925781c0 .109375-.023437.210938-.03125.316406.183594.09375.375.179688.554688.277344l21.589844 11.988281c4.808594 2.671875 8.742187.355469 8.742187-5.144531v-29.800781c0-5.5-3.933593-7.816407-8.742187-5.144531zm0 0" fill="#37c47a" data-original="#37C47A"/><path d="m347.84375 425v-29.800781c0-1.070313.152344-2.015625.429688-2.832031l-4.164063-2.3125c-4.808594-2.671876-8.742187-.355469-8.742187 5.144531v29.800781c0 5.5 3.933593 7.816406 8.742187 5.144531l4.164063-2.308593c-.277344-.816407-.429688-1.765626-.429688-2.835938zm0 0" fill="#02af8e" data-original="#02AF8E"/><path d="m383.664062 417.566406c0 2.910156-2.359374 5.265625-5.269531 5.265625h-7.902343c-2.910157 0-5.269532-2.359375-5.269532-5.265625v-14.929687c0-2.910157 2.359375-5.269531 5.269532-5.269531h7.902343c2.910157 0 5.269531 2.359374 5.269531 5.269531zm0 0" fill="#60d882" data-original="#60D882"/><path d="m141.367188 159c-.667969-1.234375-1.960938-2-3.363282-2-1.410156 0-2.699218.765625-3.371094 2l-33.890624 62.152344c-4.097657 6.757812-6.261719 14.507812-6.261719 22.4375 0 21.71875 16.09375 39.757812 37.019531 42.898437v-24.515625c0-3.582031 2.914062-6.5 6.5-6.5s6.5 2.917969 6.5 6.5v24.515625c20.921875-3.136719 37.019531-21.179687 37.019531-42.898437 0-7.929688-2.164062-15.683594-6.257812-22.4375zm0 0" fill="#ffaf10" data-original="#FFAF10"/><path d="m121.367188 263.285156c-4.539063-4.363281-7.367188-10.492187-7.367188-17.285156 0-7.234375 3.207031-13.71875 8.273438-18.121094.605468-1.265625 1.253906-2.515625 1.988281-3.726562l26.316406-48.261719-9.210937-16.890625c-.667969-1.234375-1.960938-2-3.363282-2-1.410156 0-2.699218.765625-3.371094 2l-33.890624 62.152344c-4.097657 6.757812-6.261719 14.507812-6.261719 22.4375 0 21.71875 16.09375 39.757812 37.019531 42.898437v-8.527343c-4.320312-4.109376-7.789062-9.101563-10.132812-14.675782zm0 0" fill="#ef9614" data-original="#EF9614"/><path d="m138 222c-13.253906 0-24 10.746094-24 24 0 11 7.40625 20.265625 17.5 23.101562v-7.128906c0-3.582031 2.914062-6.5 6.5-6.5s6.5 2.917969 6.5 6.5v7.128906c10.09375-2.835937 17.5-12.101562 17.5-23.101562 0-13.253906-10.746094-24-24-24zm0 0" fill="#ffd00d" data-original="#FFD00D"/><path d="m145.5 296.5v-34.527344c0-4.140625-3.359375-7.5-7.5-7.5s-7.5 3.359375-7.5 7.5v34.527344zm0 0" fill="#2e4c89" data-original="#2E4C89"/><path d="m191 295.5h-106c-2.75 0-5 2.25-5 5v147.605469c7.632812 6.957031 15.714844 13.433593 24.183594 19.394531h91.816406v-167c0-2.75-2.25-5-5-5zm0 0" fill="#02af8e" data-original="#02AF8E"/><path d="m104 300.5c0-2.75 2.25-5 5-5h-24c-2.75 0-5 2.25-5 5v147.605469c7.578125 6.90625 15.597656 13.335937 24 19.261719zm0 0" fill="#159e97" data-original="#159E97"/><g fill="#37c47a"><path d="m80 311h116v15h-116zm0 0" data-original="#000000" class="active-path" style="fill:#000000"/><path d="m80 340h116v15h-116zm0 0" data-original="#000000" class="active-path" style="fill:#000000"/><path d="m80 369h116v15h-116zm0 0" data-original="#000000" class="active-path" style="fill:#000000"/><path d="m80 398h116v15h-116zm0 0" data-original="#000000" class="active-path" style="fill:#000000"/><path d="m80 427h116v15h-116zm0 0" data-original="#000000" class="active-path" style="fill:#000000"/><path d="m104.183594 467.5h91.816406v-11.5h-106.90625c4.875 4.023438 9.910156 7.855469 15.089844 11.5zm0 0" data-original="#000000" class="active-path" style="fill:#000000"/></g><path d="m386.113281 467.28125c1.988281-1.402344 3.957031-2.820312 5.902344-4.28125h-.023437c-1.9375 1.453125-3.894532 2.882812-5.878907 4.28125zm0 0" fill="#bf7e52" data-original="#BF7E52"/></g> </svg>
