<?xml version="1.0"?>
<svg xmlns="http://www.w3.org/2000/svg" height="512px" viewBox="-11 0 512 512" width="512px" class=""><g><path d="m490 267c0 135.308594-109.691406 245-245 245s-245-109.691406-245-245 109.691406-245 245-245 245 109.691406 245 245zm0 0" fill="#293d7c" data-original="#293D7C" class=""/><path d="m109.304688 471c11.46875 7.644531 23.617187 14.347656 36.339843 20h198.714844c12.71875-5.652344 24.867187-12.355469 36.335937-20zm0 0" fill="#c3ddf4" data-original="#C3DDF4"/><path d="m84.410156 452c8.332032 7.234375 17.148438 13.925781 26.40625 20h268.367188c9.257812-6.074219 18.074218-12.765625 26.40625-20zm0 0" fill="#d9eafc" data-original="#D9EAFC" class=""/><path d="m69 437.414062c5.273438 5.445313 10.789062 10.648438 16.546875 15.585938h318.90625c5.753906-4.9375 11.273437-10.140625 16.546875-15.585938v-280.414062h-352zm0 0" fill="#eef6ff" data-original="#EEF6FF" class=""/><path d="m89 157v275c0 2.75 2.25 5 5 5h302c2.75 0 5-2.25 5-5v-275zm0 0" fill="#fff" data-original="#FFF"/><path d="m69 134h352v24h-352zm0 0" fill="#b7092b" data-original="#B7092B" class=""/><path d="m69 134h24v24h-24zm0 0" fill="#a00026" data-original="#A00026"/><path d="m411 35h-50.75v45c0 7.71875-6.28125 14-14 14s-14-6.28125-14-14v-45h-174.5v45c0 7.71875-6.28125 14-14 14s-14-6.28125-14-14v-45h-50.75c-5.5 0-10 4.5-10 10v90h352v-90c0-5.5-4.5-10-10-10zm0 0" fill="#fe3745" data-original="#FE3745"/><path d="m103 35h-24c-5.5 0-10 4.5-10 10v90h24v-90c0-5.5 4.5-10 10-10zm0 0" fill="#ea2a3d" data-original="#EA2A3D"/><path d="m157.75 51.28125v28.71875c0 7.71875-6.28125 14-14 14s-14-6.28125-14-14v-28.71875c-10.371094 5.15625-17.5 15.851562-17.5 28.21875 0 17.398438 14.101562 31.5 31.5 31.5s31.5-14.101562 31.5-31.5c0-12.367188-7.128906-23.0625-17.5-28.21875zm0 0" fill="#b7092b" data-original="#B7092B" class=""/><path d="m143.75 95c-8.285156 0-15-6.714844-15-15v-65c0-8.285156 6.714844-15 15-15s15 6.714844 15 15v65c0 8.285156-6.714844 15-15 15zm0 0" fill="#999cad" data-original="#999CAD"/><path d="m360.25 51.28125v28.71875c0 7.71875-6.28125 14-14 14s-14-6.28125-14-14v-28.71875c-10.371094 5.15625-17.5 15.851562-17.5 28.21875 0 17.398438 14.101562 31.5 31.5 31.5s31.5-14.101562 31.5-31.5c0-12.367188-7.128906-23.0625-17.5-28.21875zm0 0" fill="#b7092b" data-original="#B7092B" class=""/><path d="m346.25 95c-8.285156 0-15-6.714844-15-15v-65c0-8.285156 6.714844-15 15-15s15 6.714844 15 15v65c0 8.285156-6.714844 15-15 15zm0 0" fill="#999cad" data-original="#999CAD"/><g fill="#0f9390"><path d="m350.917969 320.679688c-21.441407 0-38.886719-17.128907-38.886719-38.179688 0-4.144531 3.355469-7.5 7.5-7.5 4.140625 0 7.5 3.355469 7.5 7.5 0 12.78125 10.714844 23.179688 23.886719 23.179688 13.167969 0 23.886719-10.398438 23.886719-23.179688s-10.714844-23.179688-23.886719-23.179688h-24.691407c-4.140624 0-7.5-3.359374-7.5-7.5v-34.390624c0-4.140626 3.359376-7.5 7.5-7.5h48.488282c4.140625 0 7.5 3.359374 7.5 7.5 0 4.144531-3.359375 7.5-7.5 7.5h-40.988282v19.390624h17.191407c21.441406 0 38.886719 17.125 38.886719 38.179688 0 21.050781-17.445313 38.179688-38.886719 38.179688zm0 0" data-original="#000000"/><path d="m303.996094 317.496094h-55.222656c-3.011719 0-5.734376-1.804688-6.910157-4.582032-1.171875-2.777343-.566406-5.988281 1.535157-8.148437l47.925781-49.238281c3.867187-3.972656 5.171875-7.421875 5.171875-13.679688 0-11.082031-8.683594-20.097656-19.359375-20.097656s-19.359375 9.015625-19.359375 20.097656c0 4.140625-3.359375 7.5-7.5 7.5-4.144532 0-7.5-3.359375-7.5-7.5 0-19.355468 15.414062-35.097656 34.359375-35.097656 18.945312 0 34.359375 15.742188 34.359375 35.097656 0 7.152344-1.121094 15.613282-9.425782 24.144532l-35.53125 36.503906h37.457032c4.140625 0 7.5 3.359375 7.5 7.5 0 4.144531-3.355469 7.5-7.5 7.5zm0 0" data-original="#000000"/><path d="m364.535156 362.183594h-97.988281c-4.144531 0-7.5-3.355469-7.5-7.5 0-4.144532 3.355469-7.5 7.5-7.5h97.988281c4.140625 0 7.5 3.355468 7.5 7.5 0 4.144531-3.359375 7.5-7.5 7.5zm0 0" data-original="#000000"/></g><path d="m237.921875 358.230469-23.0625-39.941407h-91.359375l-23.0625 39.941407c-1.214844 2.117187-1.214844 4.71875 0 6.832031 1.21875 2.109375 3.476562 3.410156 5.914062 3.410156h125.65625c2.4375 0 4.695313-1.300781 5.914063-3.410156 1.21875-2.113281 1.21875-4.714844 0-6.832031zm0 0" fill="#37c47a" data-original="#37C47A"/><path d="m124.914062 365.0625c-1.21875-2.113281-1.21875-4.714844 0-6.832031l23.0625-39.941407h-24.476562l-23.058594 39.941407c-1.21875 2.117187-1.21875 4.71875 0 6.832031 1.214844 2.109375 3.472656 3.414062 5.914063 3.414062h24.472656c-2.4375 0-4.695313-1.304687-5.914063-3.414062zm0 0" fill="#2bb381" data-original="#2BB381"/><path d="m225.761719 310.984375-25.691407-44.5h-61.78125l-25.6875 44.5c-1.003906 1.734375-1.003906 3.882813 0 5.617187 1.003907 1.738282 2.859376 2.8125 4.863282 2.8125h103.429687c2.007813 0 3.863281-1.070312 4.867188-2.8125 1.007812-1.734374 1.007812-3.878906 0-5.617187zm0 0" fill="#02af8e" data-original="#02AF8E"/><path d="m137.085938 316.601562c-1.007813-1.734374-1.007813-3.878906 0-5.617187l25.6875-44.5h-24.484376l-25.6875 44.5c-1.003906 1.738281-1.003906 3.882813 0 5.617187 1.003907 1.742188 2.859376 2.8125 4.863282 2.8125h24.484375c-2.003907 0-3.859375-1.070312-4.863281-2.8125zm0 0" fill="#159e97" data-original="#159E97"/><path d="m134.328125 267.609375c-2.007813 0-3.863281-1.070313-4.867187-2.8125-1.003907-1.734375-1.003907-3.878906 0-5.617187l34.855468-60.371094c1-1.734375 2.859375-2.808594 4.867188-2.808594 2.007812 0 3.863281 1.070312 4.867187 2.808594l34.851563 60.371094c1.003906 1.738281 1.003906 3.882812 0 5.617187-1.003906 1.742187-2.859375 2.8125-4.867188 2.8125zm0 0" fill="#159e97" data-original="#159E97"/><path d="m153.804688 264.796875c-1.003907-1.734375-1.003907-3.878906 0-5.617187l27.550781-47.714844-7.304688-12.652344c-1.003906-1.738281-2.859375-2.8125-4.871093-2.8125-2.007813 0-3.863282 1.074219-4.867188 2.8125l-34.851562 60.367188c-1.003907 1.738281-1.003907 3.882812 0 5.617187 1.003906 1.742187 2.859374 2.8125 4.867187 2.8125h24.34375c-2.007813 0-3.863281-1.070313-4.867187-2.8125zm0 0" fill="#0f9390" data-original="#0F9390" class="active-path" style="fill:#0F9390"/><path d="m300.5 411.5h-111c-4.140625 0-7.5-3.355469-7.5-7.5s3.359375-7.5 7.5-7.5h111c4.140625 0 7.5 3.355469 7.5 7.5s-3.359375 7.5-7.5 7.5zm0 0" fill="#c3ddf4" data-original="#C3DDF4"/></g> </svg>
